<?xml version="1.0" encoding="UTF-8" standalone="no"?>
<!DOCTYPE svg PUBLIC "-//W3C//DTD SVG 1.1//EN"
 "http://www.w3.org/Graphics/SVG/1.1/DTD/svg11.dtd">
<!-- Generated by graphviz version 2.43.0 (0)
 -->
<!-- Title: Architecture Pages: 1 -->
<svg width="538pt" height="717pt"
 viewBox="0.00 0.00 538.00 717.00" xmlns="http://www.w3.org/2000/svg" xmlns:xlink="http://www.w3.org/1999/xlink">
<g id="graph0" class="graph" transform="scale(1 1) rotate(0) translate(4 713)">
<title>Architecture</title>
<polygon fill="white" stroke="transparent" points="-4,4 -4,-713 534,-713 534,4 -4,4"/>
<g id="clust1" class="cluster">
<title>cluster_client</title>
<polygon fill="#f5f8ff" stroke="#cadcfc" points="8,-627 8,-701 152,-701 152,-627 8,-627"/>
<text text-anchor="middle" x="80" y="-686.6" font-family="Times,serif" font-size="13.00" fill="#1e2761">Client</text>
</g>
<g id="clust2" class="cluster">
<title>cluster_tunnel</title>
<polygon fill="#f5f8ff" stroke="#cadcfc" points="26,-534 26,-608 135,-608 135,-534 26,-534"/>
<text text-anchor="middle" x="80.5" y="-593.6" font-family="Times,serif" font-size="13.00" fill="#1e2761">Public Access</text>
</g>
<g id="clust3" class="cluster">
<title>cluster_gateway</title>
<polygon fill="#f5f8ff" stroke="#cadcfc" points="27,-441 27,-515 196,-515 196,-441 27,-441"/>
<text text-anchor="middle" x="111.5" y="-500.6" font-family="Times,serif" font-size="13.00" fill="#1e2761">Gateway (localhost:80)</text>
</g>
<g id="clust4" class="cluster">
<title>cluster_services</title>
<polygon fill="#f5f8ff" stroke="#cadcfc" points="125,-122 125,-412 345,-412 345,-122 125,-122"/>
<text text-anchor="middle" x="235" y="-397.6" font-family="Times,serif" font-size="13.00" fill="#1e2761">Microservices</text>
</g>
<g id="clust5" class="cluster">
<title>cluster_external</title>
<polygon fill="#f5f8ff" stroke="#cadcfc" points="48,-8 48,-82 190,-82 190,-8 48,-8"/>
<text text-anchor="middle" x="119" y="-67.6" font-family="Times,serif" font-size="13.00" fill="#1e2761">External Service</text>
</g>
<g id="clust6" class="cluster">
<title>cluster_data</title>
<polygon fill="#f5f8ff" stroke="#cadcfc" points="198,-8 198,-82 522,-82 522,-8 198,-8"/>
<text text-anchor="middle" x="360" y="-67.6" font-family="Times,serif" font-size="13.00" fill="#1e2761">Data</text>
</g>
<!-- Browser -->
<g id="node1" class="node">
<title>Browser</title>
<path fill="#1e2761" stroke="black" stroke-width="0" d="M132,-671C132,-671 28,-671 28,-671 22,-671 16,-665 16,-659 16,-659 16,-647 16,-647 16,-641 22,-635 28,-635 28,-635 132,-635 132,-635 138,-635 144,-641 144,-647 144,-647 144,-659 144,-659 144,-665 138,-671 132,-671"/>
<text text-anchor="middle" x="80" y="-649.9" font-family="Helvetica,sans-Serif" font-size="12.00" fill="white">Browser (React SPA)</text>
</g>
<!-- Ngrok -->
<g id="node2" class="node">
<title>Ngrok</title>
<path fill="#3d5aa0" stroke="black" stroke-width="0" d="M109.5,-578C109.5,-578 50.5,-578 50.5,-578 44.5,-578 38.5,-572 38.5,-566 38.5,-566 38.5,-554 38.5,-554 38.5,-548 44.5,-542 50.5,-542 50.5,-542 109.5,-542 109.5,-542 115.5,-542 121.5,-548 121.5,-554 121.5,-554 121.5,-566 121.5,-566 121.5,-572 115.5,-578 109.5,-578"/>
<text text-anchor="middle" x="80" y="-556.9" font-family="Helvetica,sans-Serif" font-size="12.00" fill="white">ngrok tunnel</text>
</g>
<!-- Browser&#45;&gt;Ngrok -->
<g id="edge1" class="edge">
<title>Browser&#45;&gt;Ngrok</title>
<path fill="none" stroke="#5b6b9a" d="M80,-634.88C80,-621.79 80,-603.48 80,-588.36"/>
<polygon fill="#5b6b9a" stroke="#5b6b9a" points="83.5,-588.04 80,-578.04 76.5,-588.04 83.5,-588.04"/>
</g>
<!-- Nginx -->
<g id="node3" class="node">
<title>Nginx</title>
<path fill="#1e2761" stroke="black" stroke-width="0" d="M95,-485C95,-485 65,-485 65,-485 59,-485 53,-479 53,-473 53,-473 53,-461 53,-461 53,-455 59,-449 65,-449 65,-449 95,-449 95,-449 101,-449 107,-455 107,-461 107,-461 107,-473 107,-473 107,-479 101,-485 95,-485"/>
<text text-anchor="middle" x="80" y="-463.9" font-family="Helvetica,sans-Serif" font-size="12.00" fill="white">Nginx</text>
</g>
<!-- Ngrok&#45;&gt;Nginx -->
<g id="edge2" class="edge">
<title>Ngrok&#45;&gt;Nginx</title>
<path fill="none" stroke="#5b6b9a" d="M80,-541.88C80,-528.79 80,-510.48 80,-495.36"/>
<polygon fill="#5b6b9a" stroke="#5b6b9a" points="83.5,-495.04 80,-485.04 76.5,-495.04 83.5,-495.04"/>
</g>
<!-- PromptService -->
<g id="node4" class="node">
<title>PromptService</title>
<path fill="black" stroke="transparent" stroke-width="0" d="M310.5,-227C310.5,-227 145.5,-227 145.5,-227 139.5,-227 133.5,-221 133.5,-215 133.5,-215 133.5,-142 133.5,-142 133.5,-136 139.5,-130 145.5,-130 145.5,-130 310.5,-130 310.5,-130 316.5,-130 322.5,-136 322.5,-142 322.5,-142 322.5,-215 322.5,-215 322.5,-221 316.5,-227 310.5,-227"/>
<polygon fill="#2f3c7e" stroke="transparent" points="133.5,-130 133.5,-227 322.5,-227 322.5,-130 133.5,-130"/>
<text text-anchor="start" x="168" y="-213.9" font-family="Helvetica,sans-Serif" font-weight="bold" font-size="12.00" fill="white">prompt&#45;service :8000</text>
<text text-anchor="start" x="138" y="-193.5" font-family="Helvetica,sans-Serif" font-size="10.00" fill="#c9d3f7">JWT auth filter + /auth/login</text>
<text text-anchor="start" x="138" y="-174.5" font-family="Helvetica,sans-Serif" font-size="10.00" fill="#c9d3f7">In&#45;memory cache (single&#45;prompt lookups)</text>
<text text-anchor="start" x="138" y="-155.5" font-family="Helvetica,sans-Serif" font-size="10.00" fill="#c9d3f7">Cloudinary attachment upload / delete</text>
<text text-anchor="start" x="138" y="-136.5" font-family="Helvetica,sans-Serif" font-size="10.00" fill="#c9d3f7">Paginated / sorted / filtered listing</text>
</g>
<!-- Nginx&#45;&gt;PromptService -->
<g id="edge3" class="edge">
<title>Nginx&#45;&gt;PromptService</title>
<path fill="none" stroke="#5b6b9a" d="M72.32,-448.74C58.52,-414.96 33.59,-338.71 63,-285 76.95,-259.52 99.96,-239.3 124.44,-223.66"/>
<polygon fill="#5b6b9a" stroke="#5b6b9a" points="126.45,-226.54 133.14,-218.32 122.79,-220.57 126.45,-226.54"/>
<text text-anchor="middle" x="93.5" y="-336.5" font-family="Helvetica,sans-Serif" font-size="10.00" fill="#3a4468">/api/prompts/*</text>
<text text-anchor="middle" x="93.5" y="-325.5" font-family="Helvetica,sans-Serif" font-size="10.00" fill="#3a4468">/api/auth/*</text>
</g>
<!-- ReviewService -->
<g id="node5" class="node">
<title>ReviewService</title>
<path fill="black" stroke="transparent" stroke-width="0" d="M325,-382C325,-382 145,-382 145,-382 139,-382 133,-376 133,-370 133,-370 133,-297 133,-297 133,-291 139,-285 145,-285 145,-285 325,-285 325,-285 331,-285 337,-291 337,-297 337,-297 337,-370 337,-370 337,-376 331,-382 325,-382"/>
<polygon fill="#2f3c7e" stroke="transparent" points="133,-285 133,-382 337,-382 337,-285 133,-285"/>
<text text-anchor="start" x="176" y="-368.9" font-family="Helvetica,sans-Serif" font-weight="bold" font-size="12.00" fill="white">review&#45;service :8001</text>
<text text-anchor="start" x="137" y="-348.5" font-family="Helvetica,sans-Serif" font-size="10.00" fill="#c9d3f7">JWT validation (shared secret)</text>
<text text-anchor="start" x="137" y="-329.5" font-family="Helvetica,sans-Serif" font-size="10.00" fill="#c9d3f7">Scheduled digest job + /reviews/digest/latest</text>
<text text-anchor="start" x="137" y="-310.5" font-family="Helvetica,sans-Serif" font-size="10.00" fill="#c9d3f7">Async notification on review creation</text>
<text text-anchor="start" x="137" y="-291.5" font-family="Helvetica,sans-Serif" font-size="10.00" fill="#c9d3f7">Paginated / sorted / filtered listing</text>
</g>
<!-- Nginx&#45;&gt;ReviewService -->
<g id="edge4" class="edge">
<title>Nginx&#45;&gt;ReviewService</title>
<path fill="none" stroke="#5b6b9a" d="M100.26,-448.81C118.26,-433.54 145.56,-410.38 170.89,-388.89"/>
<polygon fill="#5b6b9a" stroke="#5b6b9a" points="173.32,-391.42 178.68,-382.28 168.79,-386.08 173.32,-391.42"/>
<text text-anchor="middle" x="160" y="-423" font-family="Helvetica,sans-Serif" font-size="10.00" fill="#3a4468">/api/reviews/*</text>
</g>
<!-- Cloudinary -->
<g id="node6" class="node">
<title>Cloudinary</title>
<path fill="#e07a5f" stroke="black" stroke-width="0" d="M169.5,-52C169.5,-52 68.5,-52 68.5,-52 62.5,-52 56.5,-46 56.5,-40 56.5,-40 56.5,-28 56.5,-28 56.5,-22 62.5,-16 68.5,-16 68.5,-16 169.5,-16 169.5,-16 175.5,-16 181.5,-22 181.5,-28 181.5,-28 181.5,-40 181.5,-40 181.5,-46 175.5,-52 169.5,-52"/>
<text text-anchor="middle" x="119" y="-37.4" font-family="Helvetica,sans-Serif" font-size="12.00" fill="white">Cloudinary</text>
<text text-anchor="middle" x="119" y="-24.4" font-family="Helvetica,sans-Serif" font-size="12.00" fill="white">(attachment storage)</text>
</g>
<!-- PromptService&#45;&gt;Cloudinary -->
<g id="edge7" class="edge">
<title>PromptService&#45;&gt;Cloudinary</title>
<path fill="none" stroke="#5b6b9a" d="M182.46,-129.68C177.43,-123.85 172.5,-117.87 168,-112 155.54,-95.76 143.18,-76.3 133.99,-61.01"/>
<polygon fill="#5b6b9a" stroke="#5b6b9a" points="136.81,-58.91 128.7,-52.09 130.79,-62.48 136.81,-58.91"/>
<text text-anchor="middle" x="200" y="-104" font-family="Helvetica,sans-Serif" font-size="10.00" fill="#3a4468">upload / delete</text>
<text text-anchor="middle" x="200" y="-93" font-family="Helvetica,sans-Serif" font-size="10.00" fill="#3a4468">attachment</text>
</g>
<!-- Postgres -->
<g id="node7" class="node">
<title>Postgres</title>
<path fill="#028090" stroke="black" stroke-width="0" d="M287.5,-48.73C287.5,-50.53 269.35,-52 247,-52 224.65,-52 206.5,-50.53 206.5,-48.73 206.5,-48.73 206.5,-19.27 206.5,-19.27 206.5,-17.47 224.65,-16 247,-16 269.35,-16 287.5,-17.47 287.5,-19.27 287.5,-19.27 287.5,-48.73 287.5,-48.73"/>
<path fill="none" stroke="black" stroke-width="0" d="M287.5,-48.73C287.5,-46.92 269.35,-45.45 247,-45.45 224.65,-45.45 206.5,-46.92 206.5,-48.73"/>
<text text-anchor="middle" x="247" y="-30.9" font-family="Helvetica,sans-Serif" font-size="12.00" fill="white">PostgreSQL</text>
</g>
<!-- PromptService&#45;&gt;Postgres -->
<g id="edge6" class="edge">
<title>PromptService&#45;&gt;Postgres</title>
<path fill="none" stroke="#5b6b9a" d="M234.38,-129.65C237.37,-107.24 240.82,-81.36 243.36,-62.33"/>
<polygon fill="#5b6b9a" stroke="#5b6b9a" points="246.85,-62.64 244.7,-52.26 239.91,-61.71 246.85,-62.64"/>
</g>
<!-- ReviewService&#45;&gt;PromptService -->
<g id="edge5" class="edge">
<title>ReviewService&#45;&gt;PromptService</title>
<path fill="none" stroke="#5b6b9a" stroke-dasharray="5,2" d="M232.82,-284.93C232.13,-269.82 231.36,-252.94 230.64,-237.19"/>
<polygon fill="#5b6b9a" stroke="#5b6b9a" points="234.13,-236.87 230.18,-227.04 227.14,-237.19 234.13,-236.87"/>
<text text-anchor="middle" x="264.5" y="-259" font-family="Helvetica,sans-Serif" font-size="10.00" fill="#3a4468">validate prompt</text>
<text text-anchor="middle" x="264.5" y="-248" font-family="Helvetica,sans-Serif" font-size="10.00" fill="#3a4468">(Bearer JWT)</text>
</g>
<!-- JsonStore -->
<g id="node8" class="node">
<title>JsonStore</title>
<path fill="#028090" stroke="black" stroke-width="0" d="M514,-48.73C514,-50.53 493.83,-52 469,-52 444.17,-52 424,-50.53 424,-48.73 424,-48.73 424,-19.27 424,-19.27 424,-17.47 444.17,-16 469,-16 493.83,-16 514,-17.47 514,-19.27 514,-19.27 514,-48.73 514,-48.73"/>
<path fill="none" stroke="black" stroke-width="0" d="M514,-48.73C514,-46.92 493.83,-45.45 469,-45.45 444.17,-45.45 424,-46.92 424,-48.73"/>
<text text-anchor="middle" x="469" y="-30.9" font-family="Helvetica,sans-Serif" font-size="12.00" fill="white">reviews/*.json</text>
</g>
<!-- ReviewService&#45;&gt;JsonStore -->
<g id="edge8" class="edge">
<title>ReviewService&#45;&gt;JsonStore</title>
<path fill="none" stroke="#5b6b9a" d="M337.02,-298.32C371.71,-281.89 407.58,-258.71 431,-227 467.52,-177.55 471.4,-102.11 470.54,-62.1"/>
<polygon fill="#5b6b9a" stroke="#5b6b9a" points="474.03,-61.92 470.2,-52.04 467.04,-62.15 474.03,-61.92"/>
</g>
<!-- NotifLog -->
<g id="node9" class="node">
<title>NotifLog</title>
<path fill="#028090" stroke="black" stroke-width="0" d="M406,-48.73C406,-50.53 383.59,-52 356,-52 328.41,-52 306,-50.53 306,-48.73 306,-48.73 306,-19.27 306,-19.27 306,-17.47 328.41,-16 356,-16 383.59,-16 406,-17.47 406,-19.27 406,-19.27 406,-48.73 406,-48.73"/>
<path fill="none" stroke="black" stroke-width="0" d="M406,-48.73C406,-46.92 383.59,-45.45 356,-45.45 328.41,-45.45 306,-46.92 306,-48.73"/>
<text text-anchor="middle" x="356" y="-30.9" font-family="Helvetica,sans-Serif" font-size="12.00" fill="white">notifications.log</text>
</g>
<!-- ReviewService&#45;&gt;NotifLog -->
<g id="edge9" class="edge">
<title>ReviewService&#45;&gt;NotifLog</title>
<path fill="none" stroke="#5b6b9a" stroke-dasharray="5,2" d="M292.36,-284.75C308.16,-268.24 323.33,-248.45 332,-227 354.33,-171.72 357.23,-100.81 356.91,-62.51"/>
<polygon fill="#5b6b9a" stroke="#5b6b9a" points="360.41,-62.1 356.74,-52.16 353.41,-62.22 360.41,-62.1"/>
<text text-anchor="middle" x="390.5" y="-181.5" font-family="Helvetica,sans-Serif" font-size="10.00" fill="#3a4468">async, after</text>
<text text-anchor="middle" x="390.5" y="-170.5" font-family="Helvetica,sans-Serif" font-size="10.00" fill="#3a4468">response returns</text>
</g>
</g>
</svg>
