<?xml version="1.0" encoding="UTF-8" standalone="no"?>
<!DOCTYPE svg PUBLIC "-//W3C//DTD SVG 1.1//EN"
 "http://www.w3.org/Graphics/SVG/1.1/DTD/svg11.dtd">
<!-- Generated by graphviz version 2.43.0 (0)
 -->
<!-- Title: Architecture Pages: 1 -->
<svg width="549pt" height="669pt"
 viewBox="0.00 0.00 549.00 668.75" xmlns="http://www.w3.org/2000/svg" xmlns:xlink="http://www.w3.org/1999/xlink">
<g id="graph0" class="graph" transform="scale(1 1) rotate(0) translate(4 664.75)">
<title>Architecture</title>
<polygon fill="#ffffff" stroke="transparent" points="-4,4 -4,-664.75 545,-664.75 545,4 -4,4"/>
<g id="clust1" class="cluster">
<title>cluster_client</title>
<path fill="#f5f8ff" stroke="#cadcfc" stroke-width="1.2" d="M267,-578.75C267,-578.75 403,-578.75 403,-578.75 409,-578.75 415,-584.75 415,-590.75 415,-590.75 415,-640.75 415,-640.75 415,-646.75 409,-652.75 403,-652.75 403,-652.75 267,-652.75 267,-652.75 261,-652.75 255,-646.75 255,-640.75 255,-640.75 255,-590.75 255,-590.75 255,-584.75 261,-578.75 267,-578.75"/>
<text text-anchor="middle" x="335" y="-638.35" font-family="Helvetica,sans-Serif" font-size="13.00" fill="#1e2761">Client</text>
</g>
<g id="clust2" class="cluster">
<title>cluster_tunnel</title>
<path fill="#f5f8ff" stroke="#cadcfc" stroke-width="1.2" d="M195,-468.75C195,-468.75 475,-468.75 475,-468.75 481,-468.75 487,-474.75 487,-480.75 487,-480.75 487,-530.75 487,-530.75 487,-536.75 481,-542.75 475,-542.75 475,-542.75 195,-542.75 195,-542.75 189,-542.75 183,-536.75 183,-530.75 183,-530.75 183,-480.75 183,-480.75 183,-474.75 189,-468.75 195,-468.75"/>
<text text-anchor="middle" x="335" y="-528.35" font-family="Helvetica,sans-Serif" font-size="13.00" fill="#1e2761">Public Access</text>
</g>
<g id="clust3" class="cluster">
<title>cluster_gateway</title>
<path fill="#f5f8ff" stroke="#cadcfc" stroke-width="1.2" d="M231,-358.75C231,-358.75 439,-358.75 439,-358.75 445,-358.75 451,-364.75 451,-370.75 451,-370.75 451,-420.75 451,-420.75 451,-426.75 445,-432.75 439,-432.75 439,-432.75 231,-432.75 231,-432.75 225,-432.75 219,-426.75 219,-420.75 219,-420.75 219,-370.75 219,-370.75 219,-364.75 225,-358.75 231,-358.75"/>
<text text-anchor="middle" x="335" y="-418.35" font-family="Helvetica,sans-Serif" font-size="13.00" fill="#1e2761">Gateway (localhost:80)</text>
</g>
<g id="clust4" class="cluster">
<title>cluster_services</title>
<path fill="#f5f8ff" stroke="#cadcfc" stroke-width="1.2" d="M165,-118.75C165,-118.75 331,-118.75 331,-118.75 337,-118.75 343,-124.75 343,-130.75 343,-130.75 343,-310.75 343,-310.75 343,-316.75 337,-322.75 331,-322.75 331,-322.75 165,-322.75 165,-322.75 159,-322.75 153,-316.75 153,-310.75 153,-310.75 153,-130.75 153,-130.75 153,-124.75 159,-118.75 165,-118.75"/>
<text text-anchor="middle" x="248" y="-308.35" font-family="Helvetica,sans-Serif" font-size="13.00" fill="#1e2761">Microservices</text>
</g>
<g id="clust5" class="cluster">
<title>cluster_data</title>
<path fill="#f5f8ff" stroke="#cadcfc" stroke-width="1.2" d="M20,-8C20,-8 315,-8 315,-8 321,-8 327,-14 327,-20 327,-20 327,-80.75 327,-80.75 327,-86.75 321,-92.75 315,-92.75 315,-92.75 20,-92.75 20,-92.75 14,-92.75 8,-86.75 8,-80.75 8,-80.75 8,-20 8,-20 8,-14 14,-8 20,-8"/>
<text text-anchor="middle" x="167.5" y="-78.35" font-family="Helvetica,sans-Serif" font-size="13.00" fill="#1e2761">Persistence</text>
</g>
<!-- Browser -->
<g id="node1" class="node">
<title>Browser</title>
<path fill="#1e2761" stroke="black" stroke-width="0" d="M395,-622.75C395,-622.75 275,-622.75 275,-622.75 269,-622.75 263,-616.75 263,-610.75 263,-610.75 263,-598.75 263,-598.75 263,-592.75 269,-586.75 275,-586.75 275,-586.75 395,-586.75 395,-586.75 401,-586.75 407,-592.75 407,-598.75 407,-598.75 407,-610.75 407,-610.75 407,-616.75 401,-622.75 395,-622.75"/>
<text text-anchor="middle" x="335" y="-608.15" font-family="Helvetica,sans-Serif" font-size="12.00" fill="white">Browser</text>
<text text-anchor="middle" x="335" y="-595.15" font-family="Helvetica,sans-Serif" font-size="12.00" fill="white">(React SPA)</text>
</g>
<!-- Ngrok -->
<g id="node2" class="node">
<title>Ngrok</title>
<path fill="#3d5aa0" stroke="black" stroke-width="0" d="M467,-512.75C467,-512.75 203,-512.75 203,-512.75 197,-512.75 191,-506.75 191,-500.75 191,-500.75 191,-488.75 191,-488.75 191,-482.75 197,-476.75 203,-476.75 203,-476.75 467,-476.75 467,-476.75 473,-476.75 479,-482.75 479,-488.75 479,-488.75 479,-500.75 479,-500.75 479,-506.75 473,-512.75 467,-512.75"/>
<text text-anchor="middle" x="335" y="-498.15" font-family="Helvetica,sans-Serif" font-size="12.00" fill="white">ngrok tunnel</text>
<text text-anchor="middle" x="335" y="-485.15" font-family="Helvetica,sans-Serif" font-size="12.00" fill="white">https://rogue&#45;muster&#45;attentive.ngrok&#45;free.dev</text>
</g>
<!-- Browser&#45;&gt;Ngrok -->
<g id="edge1" class="edge">
<title>Browser&#45;&gt;Ngrok</title>
<path fill="none" stroke="#5a6b7b" stroke-width="1.4" d="M335,-578.29C335,-561.17 335,-538.68 335,-521.5"/>
<polygon fill="#5a6b7b" stroke="#5a6b7b" stroke-width="1.4" points="332.2,-578.4 335,-586.4 337.8,-578.4 332.2,-578.4"/>
<polygon fill="#5a6b7b" stroke="#5a6b7b" stroke-width="1.4" points="337.8,-521.06 335,-513.06 332.2,-521.06 337.8,-521.06"/>
<text text-anchor="middle" x="354" y="-553.75" font-family="Helvetica,sans-Serif" font-size="10.00"> &#160;HTTPS</text>
</g>
<!-- Nginx -->
<g id="node3" class="node">
<title>Nginx</title>
<path fill="#1e2761" stroke="black" stroke-width="0" d="M431,-402.75C431,-402.75 239,-402.75 239,-402.75 233,-402.75 227,-396.75 227,-390.75 227,-390.75 227,-378.75 227,-378.75 227,-372.75 233,-366.75 239,-366.75 239,-366.75 431,-366.75 431,-366.75 437,-366.75 443,-372.75 443,-378.75 443,-378.75 443,-390.75 443,-390.75 443,-396.75 437,-402.75 431,-402.75"/>
<text text-anchor="middle" x="335" y="-388.15" font-family="Helvetica,sans-Serif" font-size="12.00" fill="white">Nginx</text>
<text text-anchor="middle" x="335" y="-375.15" font-family="Helvetica,sans-Serif" font-size="12.00" fill="white">Static file server + Reverse proxy</text>
</g>
<!-- Ngrok&#45;&gt;Nginx -->
<g id="edge2" class="edge">
<title>Ngrok&#45;&gt;Nginx</title>
<path fill="none" stroke="#5a6b7b" stroke-width="1.4" d="M335,-468.29C335,-451.17 335,-428.68 335,-411.5"/>
<polygon fill="#5a6b7b" stroke="#5a6b7b" stroke-width="1.4" points="332.2,-468.4 335,-476.4 337.8,-468.4 332.2,-468.4"/>
<polygon fill="#5a6b7b" stroke="#5a6b7b" stroke-width="1.4" points="337.8,-411.06 335,-403.06 332.2,-411.06 337.8,-411.06"/>
<text text-anchor="middle" x="360" y="-443.75" font-family="Helvetica,sans-Serif" font-size="10.00"> &#160;HTTP :80</text>
</g>
<!-- PromptService -->
<g id="node4" class="node">
<title>PromptService</title>
<path fill="#2f3c7e" stroke="black" stroke-width="0" d="M322.5,-173.75C322.5,-173.75 173.5,-173.75 173.5,-173.75 167.5,-173.75 161.5,-167.75 161.5,-161.75 161.5,-161.75 161.5,-138.75 161.5,-138.75 161.5,-132.75 167.5,-126.75 173.5,-126.75 173.5,-126.75 322.5,-126.75 322.5,-126.75 328.5,-126.75 334.5,-132.75 334.5,-138.75 334.5,-138.75 334.5,-161.75 334.5,-161.75 334.5,-167.75 328.5,-173.75 322.5,-173.75"/>
<text text-anchor="middle" x="248" y="-160.15" font-family="Helvetica,sans-Serif" font-size="12.00" fill="white">prompt&#45;service</text>
<text text-anchor="middle" x="248" y="-147.15" font-family="Helvetica,sans-Serif" font-size="12.00" fill="white">Spring Boot :8000</text>
<text text-anchor="middle" x="248" y="-134.15" font-family="Helvetica,sans-Serif" font-size="12.00" fill="white">/prompts</text>
</g>
<!-- Nginx&#45;&gt;PromptService -->
<g id="edge3" class="edge">
<title>Nginx&#45;&gt;PromptService</title>
<path fill="none" stroke="#5a6b7b" stroke-width="1.4" d="M377.58,-361.88C384.6,-356.3 390.91,-349.61 395,-341.75 397.26,-337.41 395.91,-335.55 395,-330.75 383.24,-268.8 385.57,-245.26 343,-198.75 335.59,-190.65 326.48,-183.75 316.87,-177.93"/>
<polygon fill="#5a6b7b" stroke="#5a6b7b" stroke-width="1.4" points="375.8,-359.71 370.99,-366.69 379.1,-364.24 375.8,-359.71"/>
<polygon fill="#5a6b7b" stroke="#5a6b7b" stroke-width="1.4" points="318.14,-175.42 309.81,-173.88 315.35,-180.28 318.14,-175.42"/>
<text text-anchor="middle" x="467" y="-266.75" font-family="Helvetica,sans-Serif" font-size="10.00"> &#160;/api/prompts/* &#160;→ &#160;/prompts/*</text>
</g>
<!-- ReviewService -->
<g id="node5" class="node">
<title>ReviewService</title>
<path fill="#2f3c7e" stroke="black" stroke-width="0" d="M322.5,-292.75C322.5,-292.75 173.5,-292.75 173.5,-292.75 167.5,-292.75 161.5,-286.75 161.5,-280.75 161.5,-280.75 161.5,-257.75 161.5,-257.75 161.5,-251.75 167.5,-245.75 173.5,-245.75 173.5,-245.75 322.5,-245.75 322.5,-245.75 328.5,-245.75 334.5,-251.75 334.5,-257.75 334.5,-257.75 334.5,-280.75 334.5,-280.75 334.5,-286.75 328.5,-292.75 322.5,-292.75"/>
<text text-anchor="middle" x="248" y="-279.15" font-family="Helvetica,sans-Serif" font-size="12.00" fill="white">review&#45;service</text>
<text text-anchor="middle" x="248" y="-266.15" font-family="Helvetica,sans-Serif" font-size="12.00" fill="white">Spring Boot :8001</text>
<text text-anchor="middle" x="248" y="-253.15" font-family="Helvetica,sans-Serif" font-size="12.00" fill="white">/reviews</text>
</g>
<!-- Nginx&#45;&gt;ReviewService -->
<g id="edge4" class="edge">
<title>Nginx&#45;&gt;ReviewService</title>
<path fill="none" stroke="#5a6b7b" stroke-width="1.4" d="M266.58,-362.49C258.03,-357.05 250.41,-350.24 245,-341.75 237.43,-329.86 237.16,-314.47 239.2,-301.01"/>
<polygon fill="#5a6b7b" stroke="#5a6b7b" stroke-width="1.4" points="265.28,-364.97 273.61,-366.57 268.09,-360.13 265.28,-364.97"/>
<polygon fill="#5a6b7b" stroke="#5a6b7b" stroke-width="1.4" points="242,-301.31 240.73,-292.93 236.49,-300.27 242,-301.31"/>
<text text-anchor="middle" x="317" y="-333.75" font-family="Helvetica,sans-Serif" font-size="10.00"> &#160;/api/reviews/* &#160;→ &#160;/reviews/*</text>
</g>
<!-- Postgres -->
<g id="node6" class="node">
<title>Postgres</title>
<path fill="#028090" stroke="black" stroke-width="0" d="M319,-58.4C319,-60.73 289.87,-62.63 254,-62.63 218.13,-62.63 189,-60.73 189,-58.4 189,-58.4 189,-20.35 189,-20.35 189,-18.02 218.13,-16.12 254,-16.12 289.87,-16.12 319,-18.02 319,-20.35 319,-20.35 319,-58.4 319,-58.4"/>
<path fill="none" stroke="black" stroke-width="0" d="M319,-58.4C319,-56.07 289.87,-54.17 254,-54.17 218.13,-54.17 189,-56.07 189,-58.4"/>
<text text-anchor="middle" x="254" y="-42.77" font-family="Helvetica,sans-Serif" font-size="12.00" fill="white">PostgreSQL</text>
<text text-anchor="middle" x="254" y="-29.77" font-family="Helvetica,sans-Serif" font-size="12.00" fill="white">promptdb</text>
</g>
<!-- PromptService&#45;&gt;Postgres -->
<g id="edge5" class="edge">
<title>PromptService&#45;&gt;Postgres</title>
<path fill="none" stroke="#5a6b7b" stroke-width="1.4" d="M249.7,-118.39C250.51,-103.63 251.49,-85.99 252.3,-71.22"/>
<polygon fill="#5a6b7b" stroke="#5a6b7b" stroke-width="1.4" points="246.89,-118.55 249.24,-126.69 252.48,-118.86 246.89,-118.55"/>
<polygon fill="#5a6b7b" stroke="#5a6b7b" stroke-width="1.4" points="255.11,-71.05 252.76,-62.91 249.52,-70.74 255.11,-71.05"/>
</g>
<!-- ReviewService&#45;&gt;PromptService -->
<g id="edge7" class="edge">
<title>ReviewService&#45;&gt;PromptService</title>
<path fill="none" stroke="#b85042" stroke-width="1.4" stroke-dasharray="5,2" d="M248,-245.69C248,-227.68 248,-202.25 248,-182.31"/>
<polygon fill="#b85042" stroke="#b85042" stroke-width="1.4" points="250.8,-182.14 248,-174.14 245.2,-182.14 250.8,-182.14"/>
<text text-anchor="middle" x="290.5" y="-212.75" font-family="Helvetica,sans-Serif" font-size="10.00" fill="#b85042"> &#160;validate prompt</text>
<text text-anchor="middle" x="290.5" y="-201.75" font-family="Helvetica,sans-Serif" font-size="10.00" fill="#b85042"> &#160;(RestClient)</text>
</g>
<!-- JsonStore -->
<g id="node7" class="node">
<title>JsonStore</title>
<path fill="#028090" stroke="black" stroke-width="0" d="M146,-58.4C146,-60.73 116.87,-62.63 81,-62.63 45.13,-62.63 16,-60.73 16,-58.4 16,-58.4 16,-20.35 16,-20.35 16,-18.02 45.13,-16.12 81,-16.12 116.87,-16.12 146,-18.02 146,-20.35 146,-20.35 146,-58.4 146,-58.4"/>
<path fill="none" stroke="black" stroke-width="0" d="M146,-58.4C146,-56.07 116.87,-54.17 81,-54.17 45.13,-54.17 16,-56.07 16,-58.4"/>
<text text-anchor="middle" x="81" y="-42.77" font-family="Helvetica,sans-Serif" font-size="12.00" fill="white">Local JSON files</text>
<text text-anchor="middle" x="81" y="-29.77" font-family="Helvetica,sans-Serif" font-size="12.00" fill="white">/reviews/*.json</text>
</g>
<!-- ReviewService&#45;&gt;JsonStore -->
<g id="edge6" class="edge">
<title>ReviewService&#45;&gt;JsonStore</title>
<path fill="none" stroke="#5a6b7b" stroke-width="1.4" d="M208.82,-240.77C186.42,-223.52 159.08,-199.69 140,-173.75 116.51,-141.82 99.69,-99.07 90.16,-70.67"/>
<polygon fill="#5a6b7b" stroke="#5a6b7b" stroke-width="1.4" points="207.23,-243.07 215.3,-245.68 210.61,-238.61 207.23,-243.07"/>
<polygon fill="#5a6b7b" stroke="#5a6b7b" stroke-width="1.4" points="92.7,-69.43 87.55,-62.7 87.38,-71.17 92.7,-69.43"/>
</g>
</g>
</svg>
